<svg xmlns="http://www.w3.org/2000/svg" width="655.359" height="655.359" fill-rule="evenodd" clip-rule="evenodd" image-rendering="optimizeQuality" shape-rendering="geometricPrecision" text-rendering="geometricPrecision" viewBox="0 0 6.827 6.827" id="quran"><path fill-rule="nonzero" d="M1.487 5.104a.084.084 0 0 0 .169 0V1.136h3.16a.084.084 0 0 0 0-.168H1.572a.084.084 0 0 0-.085.084v4.052z"></path><path fill-rule="nonzero" d="M4.732 5.104a.084.084 0 0 0 .169 0V1.136h.02a.283.283 0 0 1 .285.284v4.052a.084.084 0 1 0 .168 0V1.42a.451.451 0 0 0-.452-.452H4.816a.084.084 0 0 0-.084.084v4.052z"></path><path fill-rule="nonzero" d="M1.572 5.02h3.35a.451.451 0 0 1 .452.452.451.451 0 0 1-.452.452H1.573v-.168c.075 0 .14-.03.187-.08a.296.296 0 0 0 .078-.204.297.297 0 0 0-.079-.205.254.254 0 0 0-.187-.08V5.02zm3.35.168h-3.01a.47.47 0 0 1 .094.284.47.47 0 0 1-.094.284h3.01a.283.283 0 0 0 .284-.284.283.283 0 0 0-.284-.284zm-.913-3.659H2.38a.421.421 0 0 1-.329.328v2.441a.421.421 0 0 1 .329.328h1.63a.421.421 0 0 1 .329-.328v-2.44a.421.421 0 0 1-.329-.329zm-1.706-.168h1.782c.047 0 .084.037.084.084a.252.252 0 0 0 .253.253c.046 0 .084.037.084.084v2.592a.084.084 0 0 1-.084.084.252.252 0 0 0-.253.253.084.084 0 0 1-.084.084H2.303a.084.084 0 0 1-.084-.084.252.252 0 0 0-.253-.253.084.084 0 0 1-.084-.084V1.782c0-.047.038-.084.084-.084a.252.252 0 0 0 .253-.253c0-.047.038-.084.084-.084z"></path><path fill-rule="nonzero" d="M3.194 2.307a.863.863 0 0 1-.134.09c-.038.023-.075.046-.106.073a.084.084 0 0 1-.058.022c-.04.003-.08.013-.12.024-.05.013-.1.026-.16.03a.857.857 0 0 1-.03.159c-.01.042-.021.084-.023.126.007.01-.018.049-.027.058a.679.679 0 0 0-.067.1c-.026.045-.053.09-.091.134.038.045.065.09.09.134a.64.64 0 0 0 .073.106c.009-.005.022.052.022.058.003.04.013.08.024.121.012.05.026.1.03.159.058.004.109.017.158.03.043.01.085.022.127.024.01-.007.049.017.057.026.03.026.066.047.101.068.045.026.09.052.134.09.045-.038.09-.064.134-.09a.64.64 0 0 0 .106-.072c-.006-.01.052-.022.058-.022.04-.003.08-.014.12-.024.05-.013.1-.026.16-.03.004-.059.017-.11.03-.159.01-.042.021-.084.024-.126-.008-.01.017-.05.026-.058a.679.679 0 0 0 .068-.1c.03-.052.06-.103.108-.154a.212.212 0 0 1-.026-.03 3.607 3.607 0 0 0-.155-.19.084.084 0 0 1-.022-.058c-.003-.04-.013-.08-.023-.121-.013-.05-.026-.1-.03-.159-.06-.004-.11-.017-.16-.03-.042-.011-.084-.022-.126-.024a.084.084 0 0 1-.057-.026c-.03-.026-.065-.047-.101-.068a.857.857 0 0 1-.134-.091zm-.22-.054c.053-.03.106-.062.151-.115a.084.084 0 0 1 .14.003.55.55 0 0 0 .148.112.885.885 0 0 1 .11.074c.048.005.09.016.132.027.058.015.117.03.187.025a.084.084 0 0 1 .098.09c-.02-.001.02.179.024.194.01.042.022.083.027.13.034.04.098.118.146.182.029.039.053.077.067.107a.084.084 0 0 1-.02.106c-.017-.009-.11.137-.12.154-.022.037-.044.074-.073.111-.005.047-.016.089-.027.131a.546.546 0 0 0-.025.187.084.084 0 0 1-.091.098c.002-.019-.178.02-.193.024-.043.011-.084.022-.131.027a.885.885 0 0 1-.111.074.545.545 0 0 0-.16.126.084.084 0 0 1-.124-.007.533.533 0 0 0-.153-.12.885.885 0 0 1-.112-.073c-.047-.005-.088-.016-.13-.027a.546.546 0 0 0-.188-.025.084.084 0 0 1-.098-.09.534.534 0 0 0-.024-.194c-.01-.042-.022-.084-.027-.13-.03-.038-.051-.075-.073-.112a.545.545 0 0 0-.114-.15.084.084 0 0 1-.006-.134c.057-.045.089-.1.12-.153.022-.038.044-.075.073-.111.005-.047.016-.089.027-.131.025-.097-.023-.251.094-.28.063-.014.165-.016.215-.03.043-.01.084-.021.131-.026.037-.03.074-.052.11-.074zm.545.736-.19-.19h-.27l-.19.19v.269l.19.19h.27l.19-.19v-.269zm.134-.13c.025.04.034.055.034.095v.339a.084.084 0 0 1-.025.06l-.239.238a.084.084 0 0 1-.06.025h-.338s-.056-.02-.06-.024l-.239-.24a.084.084 0 0 1-.025-.06v-.338s.02-.056.025-.06l.239-.239a.084.084 0 0 1 .06-.025h.338c.062 0 .238.183.29.23zm1.269 2.697a.084.084 0 0 0 0-.168H2.905a.084.084 0 0 0 0 .168h2.017z"></path><path fill="#f3ffff" d="m3.329 3.448.19-.19v-.269l-.19-.19H3.06l-.191.19v.269l.191.19z"></path><path fill="#9de9a5" d="M3.363 3.616h-.338s-.056-.02-.06-.024l-.239-.24a.084.084 0 0 1-.025-.06v-.338s.02-.056.025-.06l.239-.239a.084.084 0 0 1 .06-.025h.338c.062 0 .238.183.29.23.025.04.034.054.034.094v.339a.084.084 0 0 1-.025.06l-.239.238a.084.084 0 0 1-.06.025zm-.17-1.31a.863.863 0 0 1-.133.092c-.038.022-.075.045-.106.072a.084.084 0 0 1-.058.022c-.04.003-.08.013-.12.024-.05.013-.1.026-.16.03-.003.059-.017.11-.03.159-.01.042-.021.084-.023.126.007.01-.018.049-.027.058a.679.679 0 0 0-.067.1.858.858 0 0 1-.091.134c.038.045.065.09.09.134a.64.64 0 0 0 .073.106c.009-.005.022.052.022.058.003.04.013.08.024.121.012.05.026.1.03.159.058.004.109.017.158.03.043.01.085.022.127.024.01-.007.049.017.057.026.03.026.066.047.101.068.045.026.09.052.134.09.045-.038.09-.064.134-.09a.64.64 0 0 0 .106-.072c-.006-.01.052-.022.058-.022.04-.003.08-.014.12-.024.05-.013.1-.026.16-.03.004-.059.017-.11.03-.159.01-.042.021-.084.024-.126-.008-.01.017-.05.026-.058a.68.68 0 0 0 .068-.1c.03-.052.06-.103.108-.154a.212.212 0 0 1-.026-.03 3.613 3.613 0 0 0-.155-.19.084.084 0 0 1-.022-.058c-.003-.04-.013-.08-.023-.121-.013-.05-.026-.1-.03-.159-.06-.004-.11-.017-.16-.03a.637.637 0 0 0-.126-.024.084.084 0 0 1-.057-.026c-.03-.026-.065-.047-.101-.068a.857.857 0 0 1-.134-.091z"></path><path fill="#fff59d" d="M3.252 4.12a.084.084 0 0 1-.123-.007c-.046-.056-.1-.088-.153-.12a.885.885 0 0 1-.112-.073c-.047-.005-.088-.016-.13-.027a.546.546 0 0 0-.188-.025.084.084 0 0 1-.098-.09c.008-.073-.008-.134-.024-.194-.01-.042-.022-.084-.027-.13a.885.885 0 0 1-.073-.112c-.03-.052-.062-.104-.114-.15a.084.084 0 0 1-.006-.134.533.533 0 0 0 .12-.153.884.884 0 0 1 .073-.111.89.89 0 0 1 .027-.131c.025-.097-.023-.251.094-.279.063-.015.165-.017.215-.03.043-.011.084-.022.131-.027.037-.03.074-.052.11-.074a.554.554 0 0 0 .151-.115.084.084 0 0 1 .14.003.55.55 0 0 0 .148.112.885.885 0 0 1 .11.074c.048.005.09.016.132.027.058.015.117.03.187.025a.084.084 0 0 1 .098.09c-.02-.001.02.179.024.194.01.042.022.083.027.13.034.04.098.118.146.182.029.039.053.077.067.107a.084.084 0 0 1-.02.106c-.017-.009-.11.137-.12.154-.022.037-.044.074-.073.111a.89.89 0 0 1-.027.131.546.546 0 0 0-.025.187.084.084 0 0 1-.091.098c.002-.019-.178.02-.193.024a.888.888 0 0 1-.131.027.885.885 0 0 1-.111.074.545.545 0 0 0-.16.126zm.757-2.59H2.38a.421.421 0 0 1-.329.327v2.441a.421.421 0 0 1 .329.328h1.63a.421.421 0 0 1 .329-.328v-2.44a.421.421 0 0 1-.329-.329z"></path><path fill="#f3ffff" d="M4.085 4.795H2.303a.084.084 0 0 1-.084-.084.252.252 0 0 0-.253-.253.084.084 0 0 1-.084-.084V1.782c0-.047.038-.084.084-.084a.252.252 0 0 0 .253-.253c0-.047.038-.084.084-.084h1.782c.047 0 .084.037.084.084a.252.252 0 0 0 .253.253c.046 0 .084.037.084.084v2.592a.084.084 0 0 1-.084.084.252.252 0 0 0-.253.253.084.084 0 0 1-.084.084zm-2.43.224h3.077V1.136H1.656V5.02z"></path><path fill="#9de9a5" d="M5.206 5.472zm-.284-.284zm-.106 0H1.912a.47.47 0 0 1 .094.284.47.47 0 0 1-.094.284h3.01a.283.283 0 0 0 .284-.284v-.014a.284.284 0 0 0-.284-.27h-.106zm-1.996.284c0-.047.038-.084.085-.084h2.017a.084.084 0 0 1 0 .168H2.905a.084.084 0 0 1-.085-.084zM4.9 1.136v3.883h.022a.45.45 0 0 1 .284.101v-3.7a.283.283 0 0 0-.284-.284H4.9z"></path><path fill="none" d="M0 0h6.827v6.827H0z"></path></svg>